<svg xmlns="http://www.w3.org/2000/svg"><symbol id="bg-zigzag-fill" viewBox="0 0 1150 34"><path fill="#FFF" d="M1121.252 0c-14.375 0-14.375 14-28.749 14s-14.374-14-28.748-14-14.374 14-28.748 14c-14.375 0-14.375-14-28.75-14-14.374 0-14.374 14-28.748 14S963.135 0 948.761 0s-14.374 14-28.749 14-14.375-14-28.749-14-14.374 14-28.749 14-14.375-14-28.75-14c-14.371 0-14.371 14-28.743 14-14.375 0-14.375-14-28.75-14-14.372 0-14.372 14-28.744 14-14.374 0-14.374-14-28.747-14s-14.373 14-28.747 14C675.66 14 675.66 0 661.287 0c-14.374 0-14.374 14-28.748 14-14.375 0-14.375-14-28.751-14-14.374 0-14.374 14-28.748 14S560.666 0 546.292 0s-14.374 14-28.748 14S503.17 0 488.796 0c-14.375 0-14.375 14-28.75 14-14.376 0-14.376-14-28.753-14-14.375 0-14.375 14-28.75 14S388.168 0 373.792 0c-14.375 0-14.375 14-28.75 14S330.666 0 316.291 0s-14.375 14-28.751 14c-14.376 0-14.376-14-28.753-14-14.374 0-14.374 14-28.747 14-14.375 0-14.375-14-28.75-14s-14.375 14-28.751 14c-14.377 0-14.377-14-28.754-14s-14.377 14-28.755 14c-14.378 0-14.378-14-28.756-14S71.896 14 57.518 14C43.139 14 43.139 0 28.759 0S14.38 14 0 14v20h1150V14c-14.374 0-14.374-14-28.748-14z"/></symbol><symbol id="bg-zigzag-line" viewBox="0 0 1150 23"><path fill="#E6E7E8" d="M1150 23c-9.017 0-13.728-4.589-17.514-8.276-3.412-3.323-5.877-5.724-11.234-5.724-5.358 0-7.823 2.401-11.235 5.724-3.786 3.688-8.497 8.276-17.514 8.276s-13.728-4.589-17.514-8.276c-3.412-3.323-5.877-5.724-11.234-5.724s-7.822 2.401-11.234 5.724c-3.786 3.688-8.497 8.276-17.514 8.276s-13.729-4.589-17.515-8.276C1014.08 11.401 1011.615 9 1006.257 9c-5.357 0-7.822 2.401-11.234 5.724-3.787 3.687-8.498 8.276-17.514 8.276s-13.728-4.589-17.514-8.276C956.583 11.401 954.118 9 948.761 9s-7.822 2.401-11.234 5.724C933.74 18.411 929.028 23 920.012 23s-13.729-4.589-17.515-8.276C899.085 11.401 896.62 9 891.263 9s-7.822 2.401-11.234 5.724C876.242 18.411 871.53 23 862.514 23s-13.729-4.589-17.515-8.276C841.587 11.401 839.122 9 833.764 9c-5.355 0-7.82 2.4-11.231 5.723-3.786 3.688-8.497 8.277-17.512 8.277-9.017 0-13.729-4.589-17.515-8.276C784.094 11.401 781.629 9 776.271 9c-5.356 0-7.821 2.401-11.232 5.723-3.786 3.688-8.497 8.277-17.513 8.277-9.017 0-13.729-4.589-17.514-8.277C726.602 11.401 724.137 9 718.779 9s-7.821 2.401-11.233 5.723C703.761 18.411 699.049 23 690.032 23c-9.016 0-13.727-4.589-17.512-8.276C669.109 11.401 666.645 9 661.287 9s-7.822 2.401-11.234 5.724C646.267 18.411 641.556 23 632.539 23s-13.729-4.589-17.515-8.276C611.612 11.401 609.147 9 603.788 9c-5.357 0-7.822 2.401-11.234 5.724C588.768 18.411 584.057 23 575.04 23c-9.016 0-13.728-4.589-17.514-8.276C554.115 11.401 551.65 9 546.292 9s-7.823 2.401-11.234 5.724C531.272 18.411 526.561 23 517.544 23s-13.729-4.589-17.514-8.276C496.619 11.401 494.153 9 488.796 9c-5.358 0-7.823 2.401-11.235 5.724-3.787 3.687-8.499 8.276-17.515 8.276-9.017 0-13.729-4.589-17.516-8.276C439.118 11.401 436.653 9 431.293 9c-5.358 0-7.823 2.401-11.235 5.724C416.272 18.411 411.56 23 402.543 23s-13.729-4.589-17.515-8.276C381.616 11.401 379.151 9 373.792 9c-5.358 0-7.823 2.401-11.235 5.724-3.786 3.687-8.498 8.276-17.515 8.276s-13.729-4.589-17.515-8.276C324.114 11.401 321.649 9 316.291 9s-7.824 2.401-11.236 5.724C301.269 18.411 296.556 23 287.539 23c-9.018 0-13.729-4.589-17.516-8.276C266.611 11.401 264.145 9 258.786 9c-5.357 0-7.822 2.401-11.234 5.724-3.785 3.687-8.497 8.276-17.513 8.276-9.017 0-13.729-4.589-17.515-8.276C209.112 11.401 206.647 9 201.289 9s-7.824 2.401-11.236 5.724C186.267 18.411 181.555 23 172.538 23c-9.018 0-13.73-4.589-17.517-8.276C151.609 11.401 149.144 9 143.784 9s-7.825 2.401-11.238 5.724c-3.787 3.687-8.5 8.276-17.517 8.276-9.018 0-13.73-4.589-17.517-8.276C94.099 11.401 91.633 9 86.273 9s-7.826 2.401-11.239 5.724C71.249 18.411 66.536 23 57.518 23 48.5 23 43.787 18.412 40 14.724 36.586 11.401 34.12 9 28.759 9s-7.827 2.401-11.24 5.724C13.732 18.411 9.019 23 0 23v-9c5.361 0 7.827-2.401 11.241-5.724C15.028 4.588 19.741 0 28.759 0S42.49 4.588 46.278 8.276C49.691 11.599 52.157 14 57.518 14c5.36 0 7.825-2.401 11.238-5.724C72.543 4.589 77.255 0 86.273 0s13.73 4.589 17.517 8.276c3.413 3.323 5.879 5.724 11.239 5.724s7.826-2.401 11.238-5.724C130.054 4.589 134.767 0 143.784 0s13.73 4.589 17.517 8.276c3.412 3.323 5.878 5.724 11.237 5.724 5.358 0 7.824-2.401 11.236-5.724C187.56 4.589 192.272 0 201.289 0c9.017 0 13.729 4.589 17.515 8.276 3.412 3.323 5.877 5.724 11.235 5.724 5.357 0 7.822-2.401 11.234-5.724C245.059 4.589 249.77 0 258.786 0c9.017 0 13.729 4.589 17.516 8.276C279.714 11.599 282.18 14 287.539 14s7.824-2.401 11.236-5.724C302.562 4.589 307.274 0 316.291 0c9.017 0 13.729 4.589 17.515 8.276 3.412 3.323 5.877 5.724 11.236 5.724 5.359 0 7.824-2.401 11.236-5.724C360.063 4.589 364.775 0 373.792 0s13.729 4.589 17.516 8.276C394.72 11.599 397.185 14 402.543 14s7.823-2.401 11.235-5.724C417.565 4.589 422.277 0 431.293 0c9.018 0 13.729 4.589 17.516 8.276 3.412 3.323 5.877 5.724 11.236 5.724 5.358 0 7.823-2.401 11.235-5.724C475.067 4.589 479.779 0 488.796 0c9.016 0 13.728 4.589 17.514 8.276 3.412 3.323 5.877 5.724 11.235 5.724 5.357 0 7.822-2.401 11.234-5.724C532.564 4.589 537.275 0 546.292 0c9.016 0 13.728 4.589 17.514 8.276C567.217 11.599 569.682 14 575.04 14c5.357 0 7.822-2.401 11.234-5.724C590.061 4.589 594.771 0 603.788 0c9.018 0 13.729 4.589 17.516 8.276 3.412 3.323 5.877 5.724 11.235 5.724 5.357 0 7.822-2.401 11.234-5.724C647.56 4.589 652.271 0 661.287 0s13.728 4.589 17.513 8.277C682.211 11.6 684.676 14 690.032 14c5.357 0 7.822-2.401 11.234-5.724C705.052 4.589 709.764 0 718.779 0s13.728 4.589 17.513 8.276c3.412 3.323 5.877 5.724 11.234 5.724 5.356 0 7.821-2.401 11.232-5.723C762.544 4.589 767.255 0 776.271 0c9.017 0 13.729 4.589 17.515 8.276 3.412 3.323 5.877 5.724 11.235 5.724 5.356 0 7.821-2.401 11.232-5.724C820.038 4.589 824.749 0 833.764 0c9.017 0 13.729 4.589 17.515 8.276C854.69 11.599 857.155 14 862.514 14s7.823-2.401 11.235-5.724C877.535 4.589 882.247 0 891.263 0c9.017 0 13.728 4.589 17.514 8.276 3.412 3.323 5.877 5.724 11.235 5.724s7.823-2.401 11.235-5.724C935.033 4.589 939.744 0 948.761 0s13.728 4.589 17.514 8.276c3.412 3.323 5.877 5.724 11.234 5.724s7.822-2.401 11.234-5.724C992.529 4.589 997.24 0 1006.257 0s13.729 4.589 17.515 8.276c3.412 3.323 5.877 5.724 11.235 5.724 5.357 0 7.822-2.401 11.234-5.724 3.786-3.688 8.497-8.276 17.514-8.276s13.728 4.589 17.514 8.276c3.412 3.323 5.877 5.724 11.234 5.724s7.822-2.401 11.234-5.724c3.786-3.688 8.498-8.276 17.515-8.276s13.728 4.589 17.514 8.276C1142.178 11.599 1144.643 14 1150 14v9z"/></symbol><symbol id="icon-cart" viewBox="264.205 370.961 20.294 18.849"><path fill="#231F20" d="M283.75 378.19h-3.151l-3.407-6.814a.75.75 0 1 0-1.341.671l3.071 6.143h-9.138l3.072-6.143a.75.75 0 0 0-1.341-.671l-3.407 6.814h-3.151a.75.75 0 0 0 0 1.5h.157l.855 2.991a.737.737 0 0 0-.316.595c0 .396.309.71.697.739l1.656 5.795h12.697l1.656-5.795a.745.745 0 0 0 .698-.739.738.738 0 0 0-.316-.596l.854-2.991h.157a.75.75 0 1 0-.002-1.499zm-4.181 10.121h-10.433l-1.224-4.284h12.881l-1.224 4.284zm1.653-5.785h-13.739l-.81-2.836h15.359l-.81 2.836z"/></symbol><symbol id="icon-search" viewBox="-0.8 -0.8 17.6 17.6"><path fill="#231F20" d="M16.47 14.93l-3.415-3.415A7.67 7.67 0 0 0 14.6 6.899C14.6 2.646 11.153-.8 6.9-.8S-.8 2.646-.8 6.899s3.446 7.7 7.699 7.7c1.734 0 3.326-.58 4.613-1.546l3.417 3.416c.203.202.418.33.771.33a1.1 1.1 0 0 0 1.1-1.1c0-.24-.061-.499-.33-.769zM1.399 6.899a5.5 5.5 0 1 1 11 0c0 3.038-2.462 5.5-5.5 5.5s-5.5-2.461-5.5-5.5z"/></symbol></svg>